<svg width="171" height="54" viewBox="0 0 171 54" fill="none" xmlns="http://www.w3.org/2000/svg">
<path d="M99.3725 6.05H96.3725V5.025C96.3725 4.29167 96.2558 3.75833 96.0225 3.425C95.7891 3.09167 95.4058 2.925 94.8725 2.925C94.3391 2.925 93.9558 3.09167 93.7225 3.425C93.4891 3.75833 93.3725 4.29167 93.3725 5.025V13.4C93.3725 14.1333 93.4891 14.6667 93.7225 15C93.9558 15.3333 94.3391 15.5 94.8725 15.5C95.4058 15.5 95.7891 15.3333 96.0225 15C96.2558 14.6667 96.3725 14.1333 96.3725 13.4V10.525H94.8225V7.95H99.3725V18H96.7725V15.9C96.3558 17.4667 95.3391 18.25 93.7225 18.25C92.5225 18.25 91.6641 17.8917 91.1475 17.175C90.6308 16.4583 90.3725 15.2667 90.3725 13.6V4.9C90.3725 3.36667 90.7475 2.20833 91.4975 1.425C92.2475 0.641666 93.3558 0.249999 94.8225 0.249999C96.2891 0.249999 97.4141 0.649999 98.1975 1.45C98.9808 2.23333 99.3725 3.38333 99.3725 4.9V6.05ZM109.552 17.075C108.802 17.8583 107.686 18.25 106.202 18.25C104.719 18.25 103.594 17.8583 102.827 17.075C102.077 16.275 101.702 15.1167 101.702 13.6V0.499999H104.702V13.4C104.702 14.15 104.819 14.6917 105.052 15.025C105.286 15.3417 105.669 15.5 106.202 15.5C106.736 15.5 107.119 15.3417 107.352 15.025C107.586 14.6917 107.702 14.15 107.702 13.4V0.499999H110.702V13.6C110.702 15.1167 110.319 16.275 109.552 17.075ZM113.154 18V0.499999H117.454L119.529 11.3L121.629 0.499999H125.929V18H123.179V4.325L120.429 18H118.654L115.904 4.325V18H113.154ZM134.837 18L134.312 14.5H130.962L130.462 18H127.387L130.362 0.499999H135.012L137.962 18H134.837ZM131.362 11.8H133.912L132.612 3.075L131.362 11.8ZM86.5519 51.25C85.1352 51.25 84.0352 50.8917 83.2519 50.175C82.4685 49.4583 82.0769 48.4583 82.0769 47.175V44.85H85.0019V46.85C85.0019 48.0167 85.5185 48.6 86.5519 48.6C87.5519 48.6 88.0519 48.0417 88.0519 46.925V46.6C88.0519 45.4167 87.4935 44.4333 86.3769 43.65L84.7269 42.5C83.0602 41.3333 82.2269 39.85 82.2269 38.05V37.275C82.2269 35.9917 82.6019 35 83.3519 34.3C84.1019 33.6 85.1685 33.25 86.5519 33.25C87.9185 33.25 88.9769 33.6083 89.7269 34.325C90.4935 35.025 90.8769 36.0083 90.8769 37.275V39.175H88.0269V37.5C88.0269 36.3667 87.5519 35.8 86.6019 35.8C85.6685 35.8 85.2019 36.35 85.2019 37.45V37.775C85.2019 38.725 85.6935 39.5333 86.6769 40.2L88.3019 41.325C90.1185 42.5917 91.0269 44.2833 91.0269 46.4V47.175C91.0269 48.4917 90.6435 49.5 89.8769 50.2C89.1102 50.9 88.0019 51.25 86.5519 51.25ZM97.4476 51.25C94.4642 51.25 92.9726 49.7 92.9726 46.6V37.9C92.9726 34.8 94.4642 33.25 97.4476 33.25C98.8976 33.25 99.9976 33.65 100.748 34.45C101.498 35.2333 101.873 36.3833 101.873 37.9V40.15H98.8726V38.025C98.8726 37.275 98.7559 36.7417 98.5226 36.425C98.3059 36.0917 97.9392 35.925 97.4226 35.925C96.9059 35.925 96.5309 36.0917 96.2976 36.425C96.0809 36.7417 95.9726 37.275 95.9726 38.025V46.4C95.9726 47.15 96.0809 47.6917 96.2976 48.025C96.5309 48.3417 96.9059 48.5 97.4226 48.5C97.9392 48.5 98.3059 48.3417 98.5226 48.025C98.7559 47.6917 98.8726 47.15 98.8726 46.4V44.025H101.873V46.6C101.873 48.1167 101.498 49.275 100.748 50.075C99.9976 50.8583 98.8976 51.25 97.4476 51.25ZM104.182 51V33.5H107.182V40.675H110.182V33.5H113.182V51H110.182V43.425H107.182V51H104.182ZM123.406 50.075C122.656 50.8583 121.539 51.25 120.056 51.25C118.572 51.25 117.447 50.8583 116.681 50.075C115.931 49.275 115.556 48.1167 115.556 46.6V37.9C115.556 36.3833 115.931 35.2333 116.681 34.45C117.447 33.65 118.572 33.25 120.056 33.25C121.539 33.25 122.656 33.65 123.406 34.45C124.172 35.2333 124.556 36.3833 124.556 37.9V46.6C124.556 48.1167 124.172 49.275 123.406 50.075ZM118.906 48C119.139 48.3333 119.522 48.5 120.056 48.5C120.589 48.5 120.972 48.3333 121.206 48C121.439 47.6667 121.556 47.1333 121.556 46.4V38.025C121.556 37.275 121.439 36.7417 121.206 36.425C120.972 36.0917 120.589 35.925 120.056 35.925C119.522 35.925 119.139 36.0917 118.906 36.425C118.672 36.7417 118.556 37.275 118.556 38.025V46.4C118.556 47.1333 118.672 47.6667 118.906 48ZM134.66 50.075C133.91 50.8583 132.794 51.25 131.31 51.25C129.827 51.25 128.702 50.8583 127.935 50.075C127.185 49.275 126.81 48.1167 126.81 46.6V37.9C126.81 36.3833 127.185 35.2333 127.935 34.45C128.702 33.65 129.827 33.25 131.31 33.25C132.794 33.25 133.91 33.65 134.66 34.45C135.427 35.2333 135.81 36.3833 135.81 37.9V46.6C135.81 48.1167 135.427 49.275 134.66 50.075ZM130.16 48C130.394 48.3333 130.777 48.5 131.31 48.5C131.844 48.5 132.227 48.3333 132.46 48C132.694 47.6667 132.81 47.1333 132.81 46.4V38.025C132.81 37.275 132.694 36.7417 132.46 36.425C132.227 36.0917 131.844 35.925 131.31 35.925C130.777 35.925 130.394 36.0917 130.16 36.425C129.927 36.7417 129.81 37.275 129.81 38.025V46.4C129.81 47.1333 129.927 47.6667 130.16 48ZM138.19 51V33.5H141.19V48.3H145.44V51H138.19Z" fill="#D9D9D9"/>
<path d="M20.7262 1.41805C18.3926 2.49274 16.1818 5.65541 15.5063 8.91019C15.0457 11.0596 14.9536 15.7882 15.2913 18.1526L15.5063 19.5343L16.5196 15.9725C17.7478 11.7658 18.6075 9.76995 19.9279 8.29608C22.1387 5.74752 23.6739 6.02387 27.635 9.73924C30.4292 12.3492 31.5653 12.9019 33.0391 12.3185C33.6839 12.0729 34.3902 10.6297 34.3902 9.5243C34.3902 8.44961 32.9163 6.05458 31.3503 4.58071C28.2798 1.6944 23.3055 0.22053 20.7262 1.41805Z" fill="#BF5652"/>
<path d="M40.9919 3.56739C39.2109 4.36573 37.7678 6.66864 37.7678 8.72591C37.7985 10.1384 38.7196 12.0728 39.8865 13.0554C42.65 15.3583 46.3653 14.4371 47.9313 10.9981C48.8832 8.87944 48.484 6.45371 46.8873 4.7342C45.4135 3.16822 42.9877 2.67693 40.9919 3.56739Z" fill="#BF5652"/>
<path d="M60.5206 13.301C60.5206 13.5774 59.9372 14.9284 59.2309 16.3102C57.8185 19.1351 54.7172 22.482 52.3529 23.7409C51.0633 24.4164 50.9097 24.4471 50.1421 24.0173C49.006 23.3725 48.0848 21.9293 47.2865 19.5343C46.089 15.9724 44.1545 14.5293 42.6806 16.0952C40.5927 18.3675 41.5445 23.1268 44.83 26.8729C48.1155 30.5883 51.7081 30.3426 55.9147 26.136C58.9239 23.1268 61.3803 17.0471 60.7969 14.0073C60.6741 13.3625 60.5513 13.0247 60.5206 13.301Z" fill="#BF5652"/>
<path d="M18.3926 23.6795C17.6557 24.4164 17.5021 24.8463 17.5021 26.0131C17.5021 27.6712 17.8092 28.3775 19.2216 29.882L20.2963 30.9567L18.2084 33.4132C17.103 34.7335 14.7693 37.3742 13.0805 39.2165C11.361 41.0895 8.75106 44.0373 7.21578 45.8182C5.68051 47.5684 3.439 50.0863 2.21078 51.4066C1.01327 52.6962 -1.52588e-05 53.863 -1.52588e-05 53.9552C-1.52588e-05 54.2929 2.51784 52.7269 7.98342 49.073C10.7776 47.1999 14.9843 44.375 17.3486 42.8398C19.7129 41.2738 22.7528 39.0323 24.1038 37.8655C25.4549 36.6679 26.7138 35.6854 26.898 35.6854C27.5121 35.6854 29.7843 37.5891 29.7843 38.1418C29.7843 39.5236 26.898 41.5501 18.9146 45.6954C16.8573 46.7701 15.4449 47.6605 15.6291 47.7833C16.7345 48.4896 26.8059 46.1867 30.552 44.4364C33.7146 42.9012 36.2325 40.0148 36.2325 37.8655C36.2325 36.1767 34.6665 33.7816 31.3503 30.3733C27.8192 26.7194 25.5777 24.9384 22.9677 23.7102C20.5113 22.5434 19.5594 22.5434 18.3926 23.6795Z" fill="#BF5652"/>
</svg>
