<svg width="202" height="74" viewBox="0 0 202 74" fill="none" xmlns="http://www.w3.org/2000/svg">
<path d="M114.769 8.27H110.569V6.835C110.569 5.80833 110.405 5.06167 110.079 4.595C109.752 4.12833 109.215 3.895 108.469 3.895C107.722 3.895 107.185 4.12833 106.859 4.595C106.532 5.06167 106.369 5.80833 106.369 6.835V18.56C106.369 19.5867 106.532 20.3333 106.859 20.8C107.185 21.2667 107.722 21.5 108.469 21.5C109.215 21.5 109.752 21.2667 110.079 20.8C110.405 20.3333 110.569 19.5867 110.569 18.56V14.535H108.399V10.93H114.769V25H111.129V22.06C110.545 24.2533 109.122 25.35 106.859 25.35C105.179 25.35 103.977 24.8483 103.254 23.845C102.53 22.8417 102.169 21.1733 102.169 18.84V6.66C102.169 4.51333 102.694 2.89166 103.744 1.795C104.794 0.698332 106.345 0.149999 108.399 0.149999C110.452 0.149999 112.027 0.709998 113.124 1.83C114.22 2.92667 114.769 4.53667 114.769 6.66V8.27ZM129.021 23.705C127.971 24.8017 126.407 25.35 124.331 25.35C122.254 25.35 120.679 24.8017 119.606 23.705C118.556 22.585 118.031 20.9633 118.031 18.84V0.499998H122.231V18.56C122.231 19.61 122.394 20.3683 122.721 20.835C123.047 21.2783 123.584 21.5 124.331 21.5C125.077 21.5 125.614 21.2783 125.941 20.835C126.267 20.3683 126.431 19.61 126.431 18.56V0.499998H130.631V18.84C130.631 20.9633 130.094 22.585 129.021 23.705ZM134.063 25V0.499998H140.083L142.988 15.62L145.928 0.499998H151.948V25H148.098V5.855L144.248 25H141.763L137.913 5.855V25H134.063ZM164.419 25L163.684 20.1H158.994L158.294 25H153.989L158.154 0.499998H164.664L168.794 25H164.419ZM159.554 16.32H163.124L161.304 4.105L159.554 16.32ZM96.8199 71.35C94.8366 71.35 93.2966 70.8483 92.1999 69.845C91.1032 68.8417 90.5549 67.4417 90.5549 65.645V62.39H94.6499V65.19C94.6499 66.8233 95.3732 67.64 96.8199 67.64C98.2199 67.64 98.9199 66.8583 98.9199 65.295V64.84C98.9199 63.1833 98.1382 61.8067 96.5749 60.71L94.2649 59.1C91.9316 57.4667 90.7649 55.39 90.7649 52.87V51.785C90.7649 49.9883 91.2899 48.6 92.3399 47.62C93.3899 46.64 94.8832 46.15 96.8199 46.15C98.7332 46.15 100.215 46.6517 101.265 47.655C102.338 48.635 102.875 50.0117 102.875 51.785V54.445H98.8849V52.1C98.8849 50.5133 98.2199 49.72 96.8899 49.72C95.5832 49.72 94.9299 50.49 94.9299 52.03V52.485C94.9299 53.815 95.6182 54.9467 96.9949 55.88L99.2699 57.455C101.813 59.2283 103.085 61.5967 103.085 64.56V65.645C103.085 67.4883 102.548 68.9 101.475 69.88C100.402 70.86 98.8499 71.35 96.8199 71.35ZM112.074 71.35C107.897 71.35 105.809 69.18 105.809 64.84V52.66C105.809 48.32 107.897 46.15 112.074 46.15C114.104 46.15 115.644 46.71 116.694 47.83C117.744 48.9267 118.269 50.5367 118.269 52.66V55.81H114.069V52.835C114.069 51.785 113.906 51.0383 113.579 50.595C113.276 50.1283 112.762 49.895 112.039 49.895C111.316 49.895 110.791 50.1283 110.464 50.595C110.161 51.0383 110.009 51.785 110.009 52.835V64.56C110.009 65.61 110.161 66.3683 110.464 66.835C110.791 67.2783 111.316 67.5 112.039 67.5C112.762 67.5 113.276 67.2783 113.579 66.835C113.906 66.3683 114.069 65.61 114.069 64.56V61.235H118.269V64.84C118.269 66.9633 117.744 68.585 116.694 69.705C115.644 70.8017 114.104 71.35 112.074 71.35ZM121.501 71V46.5H125.701V56.545H129.901V46.5H134.101V71H129.901V60.395H125.701V71H121.501ZM148.415 69.705C147.365 70.8017 145.802 71.35 143.725 71.35C141.648 71.35 140.073 70.8017 139 69.705C137.95 68.585 137.425 66.9633 137.425 64.84V52.66C137.425 50.5367 137.95 48.9267 139 47.83C140.073 46.71 141.648 46.15 143.725 46.15C145.802 46.15 147.365 46.71 148.415 47.83C149.488 48.9267 150.025 50.5367 150.025 52.66V64.84C150.025 66.9633 149.488 68.585 148.415 69.705ZM142.115 66.8C142.442 67.2667 142.978 67.5 143.725 67.5C144.472 67.5 145.008 67.2667 145.335 66.8C145.662 66.3333 145.825 65.5867 145.825 64.56V52.835C145.825 51.785 145.662 51.0383 145.335 50.595C145.008 50.1283 144.472 49.895 143.725 49.895C142.978 49.895 142.442 50.1283 142.115 50.595C141.788 51.0383 141.625 51.785 141.625 52.835V64.56C141.625 65.5867 141.788 66.3333 142.115 66.8ZM164.172 69.705C163.122 70.8017 161.559 71.35 159.482 71.35C157.405 71.35 155.83 70.8017 154.757 69.705C153.707 68.585 153.182 66.9633 153.182 64.84V52.66C153.182 50.5367 153.707 48.9267 154.757 47.83C155.83 46.71 157.405 46.15 159.482 46.15C161.559 46.15 163.122 46.71 164.172 47.83C165.245 48.9267 165.782 50.5367 165.782 52.66V64.84C165.782 66.9633 165.245 68.585 164.172 69.705ZM157.872 66.8C158.199 67.2667 158.735 67.5 159.482 67.5C160.229 67.5 160.765 67.2667 161.092 66.8C161.419 66.3333 161.582 65.5867 161.582 64.56V52.835C161.582 51.785 161.419 51.0383 161.092 50.595C160.765 50.1283 160.229 49.895 159.482 49.895C158.735 49.895 158.199 50.1283 157.872 50.595C157.545 51.0383 157.382 51.785 157.382 52.835V64.56C157.382 65.5867 157.545 66.3333 157.872 66.8ZM169.114 71V46.5H173.314V67.22H179.264V71H169.114Z" fill="#D9D9D9"/>
<path d="M27.119 4.547C24.0656 5.95317 21.1729 10.0913 20.289 14.35C19.6864 17.1624 19.5659 23.3495 20.0078 26.4431L20.289 28.251L21.6148 23.5906C23.2219 18.0864 24.3468 15.4749 26.0744 13.5465C28.9671 10.2119 30.9759 10.5734 36.1587 15.4348C39.8147 18.8498 41.3012 19.5729 43.2297 18.8096C44.0734 18.4882 44.9975 16.5999 44.9975 15.1535C44.9975 13.7474 43.069 10.6136 41.02 8.68515C37.0024 4.90858 30.4938 2.98012 27.119 4.547Z" fill="#BF5652"/>
<path d="M53.6354 7.35929C51.3051 8.40388 49.4168 11.4171 49.4168 14.1089C49.457 15.957 50.6623 18.4881 52.189 19.7738C55.8049 22.787 60.6662 21.5817 62.7152 17.082C63.9607 14.3098 63.4384 11.1359 61.3492 8.88599C59.4207 6.837 56.2468 6.19418 53.6354 7.35929Z" fill="#BF5652"/>
<path d="M79.1875 20.0952C79.1875 20.4568 78.4241 22.2245 77.5001 24.0325C75.652 27.7287 71.5942 32.1079 68.5006 33.7551C66.8132 34.639 66.6123 34.6792 65.6079 34.1167C64.1214 33.273 62.9161 31.3847 61.8715 28.251C60.3046 23.5905 57.7735 21.7023 55.8451 23.7512C53.1131 26.7243 54.3585 32.9516 58.6574 37.8531C62.9563 42.7145 67.6569 42.393 73.161 36.8889C77.0983 32.9516 80.3124 24.9967 79.5491 21.0193C79.3884 20.1756 79.2277 19.7336 79.1875 20.0952Z" fill="#BF5652"/>
<path d="M24.0656 33.6748C23.1014 34.639 22.9005 35.2015 22.9005 36.7282C22.9005 38.8977 23.3022 39.8218 25.1504 41.7904L26.5565 43.1966L23.8245 46.4107C22.3782 48.1382 19.3248 51.5934 17.1151 54.004C14.8652 56.4547 11.4502 60.3117 9.44143 62.6419C7.43261 64.9319 4.49974 68.2264 2.89269 69.954C1.32582 71.6414 0 73.1681 0 73.2886C0 73.7305 3.29446 71.6816 10.4458 66.9006C14.1019 64.4498 19.606 60.7536 22.6996 58.7448C25.7932 56.6958 29.7706 53.7629 31.5384 52.2362C33.3061 50.6694 34.9534 49.3837 35.1944 49.3837C35.998 49.3837 38.971 51.8746 38.971 52.5978C38.971 54.4057 35.1944 57.0574 24.7486 62.4812C22.0568 63.8874 20.2087 65.0525 20.4497 65.2132C21.8961 66.1372 35.0739 63.124 39.9754 60.834C44.1136 58.8251 47.408 55.0486 47.408 52.2362C47.408 50.0265 45.359 46.8928 41.02 42.4332C36.3997 37.6522 33.4669 35.322 30.0519 33.715C26.8378 32.1883 25.5923 32.1883 24.0656 33.6748Z" fill="#BF5652"/>
</svg>
